{"title":"Thompson Square - Glass [Music Video] 1080p [Sbyky]","uid":8760072,"size":102412727,"categoryP":"video","categoryS":"music_videos","magnet":"?xt=urn:btih:b1c8eb9955017db8be2ee060a95f9527dce1f18a&amp;dn=Thompson+Square+-+Glass+%5BMusic+Video%5D+1080p+%5BSbyky%5D&amp;tr=udp%3A%2F%2Ftracker.openbittorrent.com%3A80&amp;tr=udp%3A%2F%2Fopen.demonii.com%3A1337&amp;tr=udp%3A%2F%2Ftracker.coppersurfer.tk%3A6969&amp;tr=udp%3A%2F%2Fexodus.desync.com%3A6969","seeders":1,"leechers":0,"uploader":"Sbyky","files":-1,"time":1375226159,"description":"[IMG]http://www.shotpix.com/photos/20130730137521633129524.jpg[/IMG]\n\nGeneral\nComplete name                            : Thompson Square - Glass [Music Video] 1080p [Sbyky].mp4\nFormat                                   : MPEG-4\nFormat profile                           : Base Media / Version 2\nCodec ID                                 : mp42\nFile size                                : 97.7 MiB\nDuration                                 : 3mn 53s\nOverall bit rate mode                    : Variable\nOverall bit rate                         : 3 506 Kbps\nEncoded date                             : UTC 2012-02-06 20:21:27\nTagged date                              : UTC 2012-02-06 20:21:27\n\nVideo\nID                                       : 1\nFormat                                   : AVC\nFormat/Info                              : Advanced Video Codec\nFormat profile                           : &lt;a class=&quot;__cf_email__&quot; href=&quot;/cdn-cgi/l/email-protection&quot; data-cfemail=&quot;84ccede3ecc4c8b0aab4&quot;&gt;[email&amp;#160;protected]&lt;/a&gt;&lt;script cf-hash='f9e31' type=&quot;text/javascript&quot;&gt;\n/* &lt;![CDATA[ */!function(){try{var t=&quot;currentScript&quot;in document?document.currentScript:function(){for(var t=document.getElementsByTagName(&quot;script&quot;),e=t.length;e--;)if(t[e].getAttribute(&quot;cf-hash&quot;))return t[e]}();if(t&amp;&amp;t.previousSibling){var e,r,n,i,c=t.previousSibling,a=c.getAttribute(&quot;data-cfemail&quot;);if(a){for(e=&quot;&quot;,r=parseInt(a.substr(0,2),16),n=2;a.length-n;n+=2)i=parseInt(a.substr(n,2),16)^r,e+=String.fromCharCode(i);e=document.createTextNode(e),c.parentNode.replaceChild(e,c)}}}catch(u){}}();/* ]]&gt; */&lt;/script&gt;\nFormat settings, CABAC                   : Yes\nFormat settings, ReFrames                : 1 frame\nFormat settings, GOP                     : M=1, N=30\nCodec ID                                 : avc1\nCodec ID/Info                            : Advanced Video Coding\nDuration                                 : 3mn 53s\nBit rate                                 : 3 351 Kbps\nMaximum bit rate                         : 5 591 Kbps\nWidth                                    : 1 920 pixels\nHeight                                   : 1 080 pixels\nDisplay aspect ratio                     : 16:9\nFrame rate mode                          : Constant\nFrame rate                               : 29.970 fps\nColor space                              : YUV\nChroma subsampling                       : 4:2:0\nBit depth                                : 8 bits\nScan type                                : Progressive\nBits/(Pixel*Frame)                       : 0.054\nStream size                              : 93.4 MiB (96%)\nTagged date                              : UTC 2012-02-06 20:21:28\n\nAudio\nID                                       : 2\nFormat                                   : AAC\nFormat/Info                              : Advanced Audio Codec\nFormat profile                           : LC\nCodec ID                                 : 40\nDuration                                 : 3mn 53s\nBit rate mode                            : Variable\nBit rate                                 : 152 Kbps\nMaximum bit rate                         : 207 Kbps\nChannel(s)                               : 2 channels\nChannel positions                        : Front: L R\nSampling rate                            : 44.1 KHz\nCompression mode                         : Lossy\nStream size                              : 4.23 MiB (4%)\nTitle                                    : IsoMedia File Produced by Google, 5-11-2011\nEncoded date                             : UTC 2012-02-06 20:21:28\nTagged date                              : UTC 2012-02-06 20:21:28\n\nShared By Sbyky\n[IMG]http://www.shotpix.com/photos/20130722137449689157289.gif[/IMG]\n[IMG]http://www.shotpix.com/photos/20130722137449694197310.gif[/IMG]","torrent":{"xt":"urn:btih:b1c8eb9955017db8be2ee060a95f9527dce1f18a","amp;dn":"Thompson+Square+-+Glass+%5BMusic+Video%5D+1080p+%5BSbyky%5D","amp;tr":["udp%3A%2F%2Ftracker.openbittorrent.com%3A80","udp%3A%2F%2Fopen.demonii.com%3A1337","udp%3A%2F%2Ftracker.coppersurfer.tk%3A6969","udp%3A%2F%2Fexodus.desync.com%3A6969"],"infoHash":"b1c8eb9955017db8be2ee060a95f9527dce1f18a","infoHashBuffer":{"type":"Buffer","data":[177,200,235,153,85,1,125,184,190,46,224,96,169,95,149,39,220,225,241,138]},"announce":[],"urlList":[]}}